<?xml version="1.0" encoding="UTF-8" standalone="no"?>
<!-- Created with Inkscape (http://www.inkscape.org/) -->

<svg
   width="210mm"
   height="297mm"
   viewBox="0 0 210 297"
   version="1.1"
   id="svg5"
   xml:space="preserve"
   inkscape:version="1.2.1 (9c6d41e410, 2022-07-14)"
   sodipodi:docname="Icon.svg"
   xmlns:inkscape="http://www.inkscape.org/namespaces/inkscape"
   xmlns:sodipodi="http://sodipodi.sourceforge.net/DTD/sodipodi-0.dtd"
   xmlns="http://www.w3.org/2000/svg"
   xmlns:svg="http://www.w3.org/2000/svg"><sodipodi:namedview
     id="namedview7"
     pagecolor="#ffffff"
     bordercolor="#666666"
     borderopacity="1.0"
     inkscape:showpageshadow="2"
     inkscape:pageopacity="0.0"
     inkscape:pagecheckerboard="0"
     inkscape:deskcolor="#d1d1d1"
     inkscape:document-units="mm"
     showgrid="false"
     inkscape:zoom="3.7434086"
     inkscape:cx="602.12502"
     inkscape:cy="543.08792"
     inkscape:window-width="1920"
     inkscape:window-height="1000"
     inkscape:window-x="-11"
     inkscape:window-y="-11"
     inkscape:window-maximized="1"
     inkscape:current-layer="layer1" /><defs
     id="defs2" /><g
     inkscape:label="Layer 1"
     inkscape:groupmode="layer"
     id="layer1"><circle
       style="color:#000000;overflow:visible;fill:#fffccd;fill-opacity:1;stroke:#dccf00;stroke-width:0.264583px;-inkscape-stroke:none;stop-color:#000000"
       id="path916"
       cx="159.27846"
       cy="143.68561"
       r="26.23127" /><g
       id="g841"><ellipse
         style="color:#000000;overflow:visible;fill:#f07373;stroke:none;stroke-width:0.264583px;-inkscape-stroke:none;stop-color:#000000;fill-opacity:1"
         id="path456"
         cx="157.80617"
         cy="154.82916"
         rx="4.1237664"
         ry="2.9232876" /><path
         style="fill:#fa1818;stroke-width:1"
         d="m 156.75507,163.01034 c -4.46316,-1.65208 -6.00044,-7.54354 -2.91034,-11.15362 l 0.93581,-1.09329 V 139.0274 c 0,-10.9142 0.0343,-11.80059 0.48991,-12.65794 1.32579,-2.49491 4.70539,-3.11022 6.8312,-1.24373 1.69074,1.48449 1.67472,1.34994 1.67472,14.06936 v 11.51558 l 0.90168,1.18127 c 1.15606,1.51451 1.58968,2.81715 1.55758,4.67914 -0.0452,2.62456 -1.47466,4.87259 -3.87889,6.10029 -1.40581,0.71786 -4.13234,0.88285 -5.60167,0.33897 z m 1.32091,-6.90319 c 0.4323,-0.16589 1.20248,-1.41561 1.20248,-1.9512 0,-0.48666 -1.26613,-1.58861 -1.8253,-1.58861 -0.90115,0 -1.90758,1.08641 -1.93609,2.08995 -0.0374,1.31572 1.15214,1.98969 2.55891,1.44986 z m 0.78309,-22.52189 c 0.90451,-0.10196 1.41433,-0.001 2.1274,0.41924 l 0.93782,0.55332 v -3.41036 c 0,-3.26143 -0.0292,-3.44506 -0.66861,-4.20495 -0.80253,-0.95376 -1.98233,-1.26977 -3.06551,-0.8211 -1.29703,0.53725 -1.55755,1.4028 -1.55755,5.17484 0,3.32147 0.006,3.35586 0.51843,2.89226 0.28514,-0.25804 1.05375,-0.52951 1.70802,-0.60325 z"
         id="path340"
         sodipodi:nodetypes="sscscsscscssssssssccsssscs" /><path
         style="fill:#010000;stroke-width:1"
         d="m 156.75507,163.01034 c -4.46316,-1.65208 -6.00044,-7.54354 -2.91034,-11.15362 l 0.93581,-1.09329 V 139.0274 c 0,-10.9142 0.0343,-11.80059 0.48991,-12.65794 1.32579,-2.49491 4.70539,-3.11022 6.8312,-1.24373 1.69074,1.48449 1.67472,1.34994 1.67472,14.06936 v 11.51558 l 0.90168,1.18127 c 1.15606,1.51451 1.58968,2.81715 1.55758,4.67914 -0.0452,2.62456 -1.47466,4.87259 -3.87889,6.10029 -1.40581,0.71786 -4.13234,0.88285 -5.60167,0.33897 z m 4.6348,-2.04248 c 1.72951,-0.88362 2.71348,-2.26175 2.85785,-4.00264 0.15171,-1.82941 -0.26451,-3.06442 -1.40676,-4.1742 l -0.91103,-0.88514 -0.003,-12.08439 -0.003,-12.08439 -0.66861,-0.79459 c -0.80253,-0.95376 -1.98234,-1.26977 -3.06551,-0.8211 -1.55439,0.64385 -1.55755,0.6716 -1.55755,13.67835 v 11.86495 l -1.01807,1.09178 c -2.47957,2.65909 -1.84389,6.53765 1.33077,8.11965 1.69316,0.84373 2.92296,0.86911 4.44455,0.0917 z m -10.04891,-12.23698 c 0,-0.52917 0.13229,-0.66146 0.66146,-0.66146 0.52916,0 0.66145,0.13229 0.66145,0.66146 0,0.52917 -0.13229,0.66146 -0.66145,0.66146 -0.52917,0 -0.66146,-0.13229 -0.66146,-0.66146 z m 14.55208,0 c 0,-0.48507 0.14111,-0.66146 0.52917,-0.66146 0.38805,0 0.52916,0.17639 0.52916,0.66146 0,0.48507 -0.14111,0.66146 -0.52916,0.66146 -0.38806,0 -0.52917,-0.17639 -0.52917,-0.66146 z m -15.875,-2.91042 c 0,-0.61736 0.0882,-0.66146 1.32292,-0.66146 1.23472,0 1.32291,0.0441 1.32291,0.66146 0,0.61736 -0.0882,0.66146 -1.32291,0.66146 -1.23473,0 -1.32292,-0.0441 -1.32292,-0.66146 z m 15.875,0 c 0,-0.61736 0.0882,-0.66146 1.32292,-0.66146 1.23472,0 1.32291,0.0441 1.32291,0.66146 0,0.61736 -0.0882,0.66146 -1.32291,0.66146 -1.23473,0 -1.32292,-0.0441 -1.32292,-0.66146 z m -14.55208,-2.91041 c 0,-0.52917 0.13229,-0.66146 0.66146,-0.66146 0.52916,0 0.66145,0.13229 0.66145,0.66146 0,0.52916 -0.13229,0.66145 -0.66145,0.66145 -0.52917,0 -0.66146,-0.13229 -0.66146,-0.66145 z m 14.55208,0 c 0,-0.48507 0.14111,-0.66146 0.52917,-0.66146 0.38805,0 0.52916,0.17639 0.52916,0.66146 0,0.48506 -0.14111,0.66145 -0.52916,0.66145 -0.38806,0 -0.52917,-0.17639 -0.52917,-0.66145 z m -15.875,-2.91042 c 0,-0.61736 0.0882,-0.66146 1.32292,-0.66146 1.23472,0 1.32291,0.0441 1.32291,0.66146 0,0.61736 -0.0882,0.66146 -1.32291,0.66146 -1.23473,0 -1.32292,-0.0441 -1.32292,-0.66146 z m 15.875,0 c 0,-0.61736 0.0882,-0.66146 1.32292,-0.66146 1.23472,0 1.32291,0.0441 1.32291,0.66146 0,0.61736 -0.0882,0.66146 -1.32291,0.66146 -1.23473,0 -1.32292,-0.0441 -1.32292,-0.66146 z m -14.55208,-3.04271 c 0,-0.38806 0.17639,-0.52917 0.66146,-0.52917 0.48506,0 0.66145,0.14111 0.66145,0.52917 0,0.38806 -0.17639,0.52917 -0.66145,0.52917 -0.48507,0 -0.66146,-0.14111 -0.66146,-0.52917 z m 14.55208,0 c 0,-0.35278 0.17639,-0.52917 0.52917,-0.52917 0.35277,0 0.52916,0.17639 0.52916,0.52917 0,0.35278 -0.17639,0.52917 -0.52916,0.52917 -0.35278,0 -0.52917,-0.17639 -0.52917,-0.52917 z m -15.875,-2.91042 c 0,-0.45861 0.17639,-0.52916 1.32292,-0.52916 1.14652,0 1.32291,0.0705 1.32291,0.52916 0,0.45861 -0.17639,0.52917 -1.32291,0.52917 -1.14653,0 -1.32292,-0.0706 -1.32292,-0.52917 z m 15.875,0 c 0,-0.45861 0.17639,-0.52916 1.32292,-0.52916 1.14652,0 1.32291,0.0705 1.32291,0.52916 0,0.45861 -0.17639,0.52917 -1.32291,0.52917 -1.14653,0 -1.32292,-0.0706 -1.32292,-0.52917 z m -14.55208,-3.0427 c 0,-0.52917 0.13229,-0.66146 0.66146,-0.66146 0.52916,0 0.66145,0.13229 0.66145,0.66146 0,0.52916 -0.13229,0.66145 -0.66145,0.66145 -0.52917,0 -0.66146,-0.13229 -0.66146,-0.66145 z m 14.55208,0 c 0,-0.48507 0.14111,-0.66146 0.52917,-0.66146 0.38805,0 0.52916,0.17639 0.52916,0.66146 0,0.48506 -0.14111,0.66145 -0.52916,0.66145 -0.38806,0 -0.52917,-0.17639 -0.52917,-0.66145 z m -15.875,-2.91042 c 0,-0.61736 0.0882,-0.66146 1.32292,-0.66146 1.23472,0 1.32291,0.0441 1.32291,0.66146 0,0.61736 -0.0882,0.66146 -1.32291,0.66146 -1.23473,0 -1.32292,-0.0441 -1.32292,-0.66146 z m 15.875,0 c 0,-0.61736 0.0882,-0.66146 1.32292,-0.66146 1.23472,0 1.32291,0.0441 1.32291,0.66146 0,0.61736 -0.0882,0.66146 -1.32291,0.66146 -1.23473,0 -1.32292,-0.0441 -1.32292,-0.66146 z"
         id="path336" /></g><g
       id="g846"
       transform="matrix(0.25001659,0,0,0.25001659,126.42806,112.73748)"
       style="stroke-width:3.99973"><path
         style="fill:#2aa4f5;stroke-width:3.99973"
         d="m 61.787494,141.72398 c -7.096887,-0.86051 -12.743928,-4.73692 -15.822983,-10.8617 -1.478956,-2.9419 -2.080872,-5.51202 -2.080476,-8.88344 2.81e-4,-2.38755 0.280154,-4.19406 0.972262,-6.27567 0.641144,-1.92833 1.062546,-2.70374 6.066757,-11.16326 1.121028,-1.89508 3.460983,-5.850484 5.199903,-8.789787 1.738917,-2.939304 3.736487,-6.316117 4.439057,-7.504029 0.70256,-1.187912 1.45803,-2.340484 1.67882,-2.561271 0.71135,-0.711353 2.000117,-0.721153 2.746907,-0.02089 0.22422,0.210247 0.77442,1.015132 1.22268,1.788633 0.81444,1.405382 3.605467,6.134338 9.171884,15.540344 6.119427,10.34044 6.062087,10.23724 6.798007,12.23538 0.91988,2.4976 1.04253,3.27894 1.04867,6.68023 0.006,3.30111 -0.0704,3.86754 -0.84983,6.30628 -1.56798,4.90586 -5.421087,9.30653 -10.114244,11.55157 -1.75956,0.84171 -3.39864,1.38168 -5.133227,1.69107 -1.208,0.21546 -4.437187,0.37652 -5.344187,0.26654 z m 10.480794,-10.4734 c 0.2339,-0.14006 0.74438,-0.65387 1.13439,-1.1418 1.021507,-1.278 1.605807,-2.32589 2.330397,-4.17938 0.17476,-0.44703 0.49607,-2.24239 0.60634,-3.38801 0.16018,-1.66417 -0.4199,-4.33301 -1.36027,-6.25833 -0.55289,-1.132 -3.543617,-6.20105 -3.885927,-6.58637 -0.299,-0.33656 -1.07613,-0.65641 -1.59488,-0.65641 -0.8651,0 -1.855517,0.85802 -2.023397,1.75293 -0.13406,0.71456 0.11724,1.29705 1.665197,3.85986 1.87277,3.10056 2.57797,4.60081 2.78392,5.92247 0.41061,2.635 -0.23736,4.86284 -2.0743,7.13193 -0.82464,1.01864 -1.00386,1.66714 -0.68877,2.4922 0.49496,1.29603 1.90276,1.77216 3.1073,1.05091 z m -4.691517,-23.44087 c 0.945317,-0.55638 1.289997,-1.89767 0.736237,-2.86508 -0.366947,-0.64107 -1.401157,-1.15856 -2.066107,-1.03381 -1.49424,0.28032 -2.23505,1.7024 -1.58877,3.04983 0.13774,0.28718 0.45003,0.65001 0.69397,0.80629 0.56413,0.3614 1.64789,0.38224 2.22467,0.0428 z"
         id="path825" /><path
         style="fill:#2095d6;stroke-width:3.99973"
         d="m 61.787494,141.72398 c -7.096887,-0.86051 -12.743928,-4.73692 -15.822983,-10.8617 -1.478956,-2.9419 -2.080872,-5.51202 -2.080476,-8.88344 2.81e-4,-2.38755 0.280154,-4.19406 0.972262,-6.27567 0.641144,-1.92833 1.062546,-2.70374 6.066757,-11.16326 1.121028,-1.89508 3.460983,-5.850484 5.199903,-8.789787 1.738917,-2.939304 3.736487,-6.316117 4.439057,-7.504029 0.70256,-1.187912 1.45803,-2.340484 1.67882,-2.561271 0.71135,-0.711353 2.000117,-0.721153 2.746907,-0.02089 0.22422,0.210247 0.77442,1.015132 1.22268,1.788633 0.81444,1.405382 3.605467,6.134338 9.171884,15.540344 6.119427,10.34044 6.062087,10.23724 6.798007,12.23538 0.91988,2.4976 1.04253,3.27894 1.04867,6.68023 0.006,3.30111 -0.0704,3.86754 -0.84983,6.30628 -1.56798,4.90586 -5.421087,9.30653 -10.114244,11.55157 -1.75956,0.84171 -3.39864,1.38168 -5.133227,1.69107 -1.208,0.21546 -4.437187,0.37652 -5.344187,0.26654 z m 3.791547,-4.48693 c 0.73173,-0.0462 1.39624,-0.13605 1.47669,-0.19964 0.0804,-0.0636 0.44541,-0.1589 0.81102,-0.2118 0.36561,-0.0529 0.697257,-0.1488 0.737007,-0.21312 0.0397,-0.0643 0.2469,-0.15949 0.46035,-0.21151 0.50539,-0.12318 2.16308,-0.92325 2.40219,-1.1594 0.10221,-0.10095 0.27098,-0.18354 0.37503,-0.18354 0.10406,0 0.21029,-0.0475 0.23607,-0.10548 0.0258,-0.058 0.3077,-0.28247 0.62647,-0.4988 0.83487,-0.56656 2.431907,-2.14192 3.165577,-3.12259 0.6623,-0.88528 1.52533,-2.2518 1.53347,-2.42809 0.003,-0.0568 0.12705,-0.35651 0.2765,-0.66591 0.14945,-0.3094 0.27388,-0.63442 0.2765,-0.72227 0.003,-0.0878 0.0993,-0.34099 0.21486,-0.56254 0.11555,-0.22156 0.21048,-0.53257 0.21096,-0.69114 4.2e-4,-0.15856 0.0549,-0.34842 0.12094,-0.42191 0.20314,-0.22602 0.615267,-3.50022 0.541327,-4.30062 -0.20605,-2.23047 -0.521327,-3.83846 -0.947737,-4.83372 -0.0663,-0.1547 -0.26338,-0.62935 -0.43801,-1.05477 -0.17463,-0.42543 -0.58938,-1.22452 -0.92167,-1.77577 -0.3323,-0.55125 -0.60417,-1.06809 -0.60417,-1.14853 0,-0.0804 -0.0508,-0.16736 -0.11289,-0.19315 -0.15504,-0.0644 -1.15284,-1.7337 -1.15284,-1.92871 0,-0.0866 -0.0494,-0.1574 -0.1098,-0.1574 -0.0604,0 -0.18582,-0.17403 -0.27873,-0.38675 -0.0929,-0.21271 -0.2931,-0.57661 -0.44486,-0.80866 -0.15176,-0.23205 -0.36346,-0.58372 -0.47044,-0.7815 -0.106977,-0.19777 -1.091467,-1.85303 -2.187747,-3.67836 -1.09629,-1.82532 -1.99324,-3.38806 -1.99324,-3.47275 0,-0.0847 -0.0571,-0.15399 -0.12688,-0.15399 -0.0698,0 -0.19655,-0.17404 -0.28169,-0.38675 -0.0851,-0.21271 -0.27765,-0.57661 -0.42778,-0.808661 -0.15014,-0.23205 -0.360507,-0.583725 -0.467487,-0.7815 -0.10698,-0.197775 -1.09147,-1.853038 -2.18775,-3.678362 -1.09628,-1.825325 -1.99324,-3.388065 -1.99324,-3.472756 0,-0.08469 -0.11335,-0.153983 -0.25189,-0.153983 -0.16068,0 -0.39285,0.267357 -0.64117,0.738342 -0.214097,0.406088 -0.577187,1.054774 -0.806857,1.441524 -0.68413,1.152011 -0.43767,0.293992 -3.15088,10.969656 -0.57009,2.24315 -1.25927,4.93282 -1.531497,5.97705 -1.12336,4.30898 -1.51454,7.18692 -1.5006,11.03997 0.0162,4.48154 0.55788,7.95236 1.776997,11.38642 0.55882,1.57411 1.52171,3.37341 1.83172,3.42282 0.14632,0.0233 0.39261,0.104 0.54731,0.17927 0.29551,0.14379 3.123117,0.38802 3.726867,0.3219 0.19338,-0.0212 0.95028,-0.0763 1.682,-0.12252 z"
         id="path823" /><path
         style="fill:#323232;stroke-width:3.99973"
         d="m 61.154634,141.50748 c -0.7735,-0.0669 -1.50782,-0.17943 -1.63181,-0.25012 -0.12399,-0.0707 -0.52884,-0.17401 -0.89966,-0.22962 -0.37082,-0.0556 -0.83895,-0.18706 -1.040277,-0.29212 -0.20134,-0.10506 -0.47309,-0.19141 -0.60389,-0.19189 -0.1308,-4.2e-4 -0.27693,-0.0641 -0.32473,-0.1415 -0.0478,-0.0773 -0.18816,-0.14064 -0.31189,-0.14064 -0.26194,0 -2.27239,-0.9717 -2.54605,-1.23057 -0.10221,-0.0967 -0.24727,-0.17579 -0.32236,-0.17579 -0.0751,0 -0.21297,-0.0641 -0.30639,-0.14235 -0.0934,-0.0783 -0.61287,-0.46133 -1.154317,-0.8512 -1.793316,-1.29126 -3.811368,-3.43945 -5.049786,-5.37541 -3.541426,-5.53614 -3.978326,-12.83189 -1.130744,-18.88222 0.481457,-1.02296 2.035658,-3.7732 2.73801,-4.84504 0.07603,-0.11603 0.202308,-0.33753 0.280622,-0.49223 0.07831,-0.1547 0.267325,-0.47113 0.420025,-0.70318 0.1527,-0.23206 0.321621,-0.51684 0.375381,-0.63287 0.05376,-0.11602 0.964816,-1.66701 2.024571,-3.44663 2.552428,-4.286223 2.450698,-4.112077 2.895108,-4.956406 0.21374,-0.406088 0.43869,-0.738341 0.49988,-0.738341 0.0612,0 0.11126,-0.06287 0.11126,-0.139722 0,-0.07685 1.04422,-1.887577 2.3205,-4.023844 1.276277,-2.136268 2.320497,-3.913119 2.320497,-3.948558 0,-0.03544 0.18986,-0.340387 0.42191,-0.67766 0.23205,-0.337274 0.42191,-0.643338 0.42191,-0.680143 0,-0.235128 1.48636,-2.53011 1.75091,-2.703447 0.935237,-0.612797 1.958437,-0.487433 2.708917,0.331901 0.25435,0.277683 0.46245,0.557055 0.46245,0.620827 0,0.06377 0.17275,0.383658 0.38388,0.710859 0.56415,0.874288 0.71466,1.126232 0.85951,1.43873 0.0717,0.1547 1.05536,1.820072 2.185907,3.700827 1.13054,1.880754 2.05553,3.448351 2.05553,3.483549 0,0.0352 0.17274,0.331705 0.38387,0.658906 0.56415,0.874288 0.71467,1.126232 0.85952,1.438729 0.0717,0.154701 1.05536,1.820072 2.185897,3.700833 1.13054,1.88075 2.05553,3.45374 2.05553,3.49552 0,0.0418 0.18371,0.34817 0.40824,0.68086 0.22454,0.3327 0.4503,0.73741 0.50171,0.89937 0.0514,0.16196 0.15248,0.29448 0.22462,0.29448 0.0721,0 0.13116,0.0697 0.13116,0.15497 0,0.0852 0.64994,1.24021 1.444307,2.56661 0.79437,1.32641 1.68574,2.91794 1.98082,3.53674 0.29509,0.6188 0.59444,1.23499 0.66524,1.3693 0.0708,0.13431 0.12911,0.32417 0.12959,0.42191 4.2e-4,0.0977 0.089,0.34657 0.19665,0.55296 0.10768,0.20639 0.24169,0.64696 0.2978,0.97905 0.0561,0.33208 0.15397,0.70115 0.21749,0.82015 0.20001,0.37474 0.44748,2.26374 0.51659,3.94323 0.0645,1.56881 -0.239,4.53684 -0.51835,5.06833 -0.0626,0.119 -0.16035,0.49872 -0.21733,0.84382 -0.057,0.3451 -0.15101,0.69074 -0.20895,0.76809 -0.0579,0.0773 -0.1507,0.32973 -0.20613,0.56083 -0.22621,0.94314 -2.09645,4.41561 -2.81627,5.22894 -0.08,0.0904 -0.491907,0.56502 -0.915407,1.05478 -0.42351,0.48975 -1.23364,1.30182 -1.80031,1.8046 -0.56667,0.50277 -1.11748,0.99324 -1.22403,1.08993 -0.10654,0.0967 -0.23244,0.1758 -0.27977,0.1758 -0.0799,0 -0.90074,0.54492 -1.05923,0.70318 -0.23535,0.23499 -2.908567,1.547 -3.152017,1.547 -0.1136,0 -0.24567,0.0633 -0.29347,0.14064 -0.0478,0.0774 -0.19394,0.14102 -0.32474,0.1415 -0.13079,4.2e-4 -0.40254,0.0868 -0.60388,0.19189 -0.20134,0.10506 -0.67599,0.23716 -1.05477,0.29356 -0.378787,0.0564 -0.751987,0.15311 -0.829337,0.2149 -0.16177,0.12922 -3.58864,0.43345 -4.55567,0.40444 -0.356337,-0.0107 -1.280747,-0.0742 -2.054247,-0.14104 z m 4.219097,-3.98215 c 6.073237,-0.72822 10.862184,-4.56255 13.005774,-10.41326 0.578827,-1.57985 0.773477,-2.83651 0.773287,-4.99259 -4.2e-4,-4.19751 -0.475167,-5.54346 -4.059047,-11.50616 -1.13044,-1.88075 -2.055327,-3.45151 -2.055327,-3.49057 0,-0.0391 -0.18986,-0.34697 -0.42191,-0.68425 -0.23205,-0.33727 -0.42191,-0.65056 -0.42191,-0.6962 0,-0.0456 -1.17686,-2.05243 -2.61523,-4.45955 -1.438377,-2.407117 -2.740407,-4.605043 -2.893397,-4.884282 -0.66831,-1.219826 -3.00205,-5.078396 -3.07152,-5.078396 -0.0421,0 -1.018847,1.597982 -2.170617,3.551072 -2.48606,4.215679 -6.693267,11.334856 -9.246195,15.645816 -1.955902,3.30281 -2.90822,5.04252 -3.194856,5.83642 -1.539165,4.26303 -1.185246,9.41036 0.905874,13.17487 1.837563,3.30805 5.16907,6.12788 8.527187,7.21751 0.48978,0.15892 1.11074,0.35985 1.3799,0.4465 0.45412,0.14619 2.71464,0.47917 3.518747,0.51831 0.19338,0.009 1.11103,-0.0739 2.03924,-0.18524 z"
         id="path817" /></g><g
       id="g854"
       transform="matrix(0.25001659,0,0,0.25001659,157.13656,128.20243)"
       style="stroke-width:3.99973"><path
         style="fill:#2aa4f5;stroke-width:3.99973"
         d="m 61.787494,141.72398 c -7.096887,-0.86051 -12.743928,-4.73692 -15.822983,-10.8617 -1.478956,-2.9419 -2.080872,-5.51202 -2.080476,-8.88344 2.81e-4,-2.38755 0.280154,-4.19406 0.972262,-6.27567 0.641144,-1.92833 1.062546,-2.70374 6.066757,-11.16326 1.121028,-1.89508 3.460983,-5.850484 5.199903,-8.789787 1.738917,-2.939304 3.736487,-6.316117 4.439057,-7.504029 0.70256,-1.187912 1.45803,-2.340484 1.67882,-2.561271 0.71135,-0.711353 2.000117,-0.721153 2.746907,-0.02089 0.22422,0.210247 0.77442,1.015132 1.22268,1.788633 0.81444,1.405382 3.605467,6.134338 9.171884,15.540344 6.119427,10.34044 6.062087,10.23724 6.798007,12.23538 0.91988,2.4976 1.04253,3.27894 1.04867,6.68023 0.006,3.30111 -0.0704,3.86754 -0.84983,6.30628 -1.56798,4.90586 -5.421087,9.30653 -10.114244,11.55157 -1.75956,0.84171 -3.39864,1.38168 -5.133227,1.69107 -1.208,0.21546 -4.437187,0.37652 -5.344187,0.26654 z m 10.480794,-10.4734 c 0.2339,-0.14006 0.74438,-0.65387 1.13439,-1.1418 1.021507,-1.278 1.605807,-2.32589 2.330397,-4.17938 0.17476,-0.44703 0.49607,-2.24239 0.60634,-3.38801 0.16018,-1.66417 -0.4199,-4.33301 -1.36027,-6.25833 -0.55289,-1.132 -3.543617,-6.20105 -3.885927,-6.58637 -0.299,-0.33656 -1.07613,-0.65641 -1.59488,-0.65641 -0.8651,0 -1.855517,0.85802 -2.023397,1.75293 -0.13406,0.71456 0.11724,1.29705 1.665197,3.85986 1.87277,3.10056 2.57797,4.60081 2.78392,5.92247 0.41061,2.635 -0.23736,4.86284 -2.0743,7.13193 -0.82464,1.01864 -1.00386,1.66714 -0.68877,2.4922 0.49496,1.29603 1.90276,1.77216 3.1073,1.05091 z m -4.691517,-23.44087 c 0.945317,-0.55638 1.289997,-1.89767 0.736237,-2.86508 -0.366947,-0.64107 -1.401157,-1.15856 -2.066107,-1.03381 -1.49424,0.28032 -2.23505,1.7024 -1.58877,3.04983 0.13774,0.28718 0.45003,0.65001 0.69397,0.80629 0.56413,0.3614 1.64789,0.38224 2.22467,0.0428 z"
         id="path848" /><path
         style="fill:#2095d6;stroke-width:3.99973"
         d="m 61.787494,141.72398 c -7.096887,-0.86051 -12.743928,-4.73692 -15.822983,-10.8617 -1.478956,-2.9419 -2.080872,-5.51202 -2.080476,-8.88344 2.81e-4,-2.38755 0.280154,-4.19406 0.972262,-6.27567 0.641144,-1.92833 1.062546,-2.70374 6.066757,-11.16326 1.121028,-1.89508 3.460983,-5.850484 5.199903,-8.789787 1.738917,-2.939304 3.736487,-6.316117 4.439057,-7.504029 0.70256,-1.187912 1.45803,-2.340484 1.67882,-2.561271 0.71135,-0.711353 2.000117,-0.721153 2.746907,-0.02089 0.22422,0.210247 0.77442,1.015132 1.22268,1.788633 0.81444,1.405382 3.605467,6.134338 9.171884,15.540344 6.119427,10.34044 6.062087,10.23724 6.798007,12.23538 0.91988,2.4976 1.04253,3.27894 1.04867,6.68023 0.006,3.30111 -0.0704,3.86754 -0.84983,6.30628 -1.56798,4.90586 -5.421087,9.30653 -10.114244,11.55157 -1.75956,0.84171 -3.39864,1.38168 -5.133227,1.69107 -1.208,0.21546 -4.437187,0.37652 -5.344187,0.26654 z m 3.791547,-4.48693 c 0.73173,-0.0462 1.39624,-0.13605 1.47669,-0.19964 0.0804,-0.0636 0.44541,-0.1589 0.81102,-0.2118 0.36561,-0.0529 0.697257,-0.1488 0.737007,-0.21312 0.0397,-0.0643 0.2469,-0.15949 0.46035,-0.21151 0.50539,-0.12318 2.16308,-0.92325 2.40219,-1.1594 0.10221,-0.10095 0.27098,-0.18354 0.37503,-0.18354 0.10406,0 0.21029,-0.0475 0.23607,-0.10548 0.0258,-0.058 0.3077,-0.28247 0.62647,-0.4988 0.83487,-0.56656 2.431907,-2.14192 3.165577,-3.12259 0.6623,-0.88528 1.52533,-2.2518 1.53347,-2.42809 0.003,-0.0568 0.12705,-0.35651 0.2765,-0.66591 0.14945,-0.3094 0.27388,-0.63442 0.2765,-0.72227 0.003,-0.0878 0.0993,-0.34099 0.21486,-0.56254 0.11555,-0.22156 0.21048,-0.53257 0.21096,-0.69114 4.2e-4,-0.15856 0.0549,-0.34842 0.12094,-0.42191 0.20314,-0.22602 0.615267,-3.50022 0.541327,-4.30062 -0.20605,-2.23047 -0.521327,-3.83846 -0.947737,-4.83372 -0.0663,-0.1547 -0.26338,-0.62935 -0.43801,-1.05477 -0.17463,-0.42543 -0.58938,-1.22452 -0.92167,-1.77577 -0.3323,-0.55125 -0.60417,-1.06809 -0.60417,-1.14853 0,-0.0804 -0.0508,-0.16736 -0.11289,-0.19315 -0.15504,-0.0644 -1.15284,-1.7337 -1.15284,-1.92871 0,-0.0866 -0.0494,-0.1574 -0.1098,-0.1574 -0.0604,0 -0.18582,-0.17403 -0.27873,-0.38675 -0.0929,-0.21271 -0.2931,-0.57661 -0.44486,-0.80866 -0.15176,-0.23205 -0.36346,-0.58372 -0.47044,-0.7815 -0.106977,-0.19777 -1.091467,-1.85303 -2.187747,-3.67836 -1.09629,-1.82532 -1.99324,-3.38806 -1.99324,-3.47275 0,-0.0847 -0.0571,-0.15399 -0.12688,-0.15399 -0.0698,0 -0.19655,-0.17404 -0.28169,-0.38675 -0.0851,-0.21271 -0.27765,-0.57661 -0.42778,-0.808661 -0.15014,-0.23205 -0.360507,-0.583725 -0.467487,-0.7815 -0.10698,-0.197775 -1.09147,-1.853038 -2.18775,-3.678362 -1.09628,-1.825325 -1.99324,-3.388065 -1.99324,-3.472756 0,-0.08469 -0.11335,-0.153983 -0.25189,-0.153983 -0.16068,0 -0.39285,0.267357 -0.64117,0.738342 -0.214097,0.406088 -0.577187,1.054774 -0.806857,1.441524 -0.68413,1.152011 -0.43767,0.293992 -3.15088,10.969656 -0.57009,2.24315 -1.25927,4.93282 -1.531497,5.97705 -1.12336,4.30898 -1.51454,7.18692 -1.5006,11.03997 0.0162,4.48154 0.55788,7.95236 1.776997,11.38642 0.55882,1.57411 1.52171,3.37341 1.83172,3.42282 0.14632,0.0233 0.39261,0.104 0.54731,0.17927 0.29551,0.14379 3.123117,0.38802 3.726867,0.3219 0.19338,-0.0212 0.95028,-0.0763 1.682,-0.12252 z"
         id="path850" /><path
         style="fill:#323232;stroke-width:3.99973"
         d="m 61.154634,141.50748 c -0.7735,-0.0669 -1.50782,-0.17943 -1.63181,-0.25012 -0.12399,-0.0707 -0.52884,-0.17401 -0.89966,-0.22962 -0.37082,-0.0556 -0.83895,-0.18706 -1.040277,-0.29212 -0.20134,-0.10506 -0.47309,-0.19141 -0.60389,-0.19189 -0.1308,-4.2e-4 -0.27693,-0.0641 -0.32473,-0.1415 -0.0478,-0.0773 -0.18816,-0.14064 -0.31189,-0.14064 -0.26194,0 -2.27239,-0.9717 -2.54605,-1.23057 -0.10221,-0.0967 -0.24727,-0.17579 -0.32236,-0.17579 -0.0751,0 -0.21297,-0.0641 -0.30639,-0.14235 -0.0934,-0.0783 -0.61287,-0.46133 -1.154317,-0.8512 -1.793316,-1.29126 -3.811368,-3.43945 -5.049786,-5.37541 -3.541426,-5.53614 -3.978326,-12.83189 -1.130744,-18.88222 0.481457,-1.02296 2.035658,-3.7732 2.73801,-4.84504 0.07603,-0.11603 0.202308,-0.33753 0.280622,-0.49223 0.07831,-0.1547 0.267325,-0.47113 0.420025,-0.70318 0.1527,-0.23206 0.321621,-0.51684 0.375381,-0.63287 0.05376,-0.11602 0.964816,-1.66701 2.024571,-3.44663 2.552428,-4.286223 2.450698,-4.112077 2.895108,-4.956406 0.21374,-0.406088 0.43869,-0.738341 0.49988,-0.738341 0.0612,0 0.11126,-0.06287 0.11126,-0.139722 0,-0.07685 1.04422,-1.887577 2.3205,-4.023844 1.276277,-2.136268 2.320497,-3.913119 2.320497,-3.948558 0,-0.03544 0.18986,-0.340387 0.42191,-0.67766 0.23205,-0.337274 0.42191,-0.643338 0.42191,-0.680143 0,-0.235128 1.48636,-2.53011 1.75091,-2.703447 0.935237,-0.612797 1.958437,-0.487433 2.708917,0.331901 0.25435,0.277683 0.46245,0.557055 0.46245,0.620827 0,0.06377 0.17275,0.383658 0.38388,0.710859 0.56415,0.874288 0.71466,1.126232 0.85951,1.43873 0.0717,0.1547 1.05536,1.820072 2.185907,3.700827 1.13054,1.880754 2.05553,3.448351 2.05553,3.483549 0,0.0352 0.17274,0.331705 0.38387,0.658906 0.56415,0.874288 0.71467,1.126232 0.85952,1.438729 0.0717,0.154701 1.05536,1.820072 2.185897,3.700833 1.13054,1.88075 2.05553,3.45374 2.05553,3.49552 0,0.0418 0.18371,0.34817 0.40824,0.68086 0.22454,0.3327 0.4503,0.73741 0.50171,0.89937 0.0514,0.16196 0.15248,0.29448 0.22462,0.29448 0.0721,0 0.13116,0.0697 0.13116,0.15497 0,0.0852 0.64994,1.24021 1.444307,2.56661 0.79437,1.32641 1.68574,2.91794 1.98082,3.53674 0.29509,0.6188 0.59444,1.23499 0.66524,1.3693 0.0708,0.13431 0.12911,0.32417 0.12959,0.42191 4.2e-4,0.0977 0.089,0.34657 0.19665,0.55296 0.10768,0.20639 0.24169,0.64696 0.2978,0.97905 0.0561,0.33208 0.15397,0.70115 0.21749,0.82015 0.20001,0.37474 0.44748,2.26374 0.51659,3.94323 0.0645,1.56881 -0.239,4.53684 -0.51835,5.06833 -0.0626,0.119 -0.16035,0.49872 -0.21733,0.84382 -0.057,0.3451 -0.15101,0.69074 -0.20895,0.76809 -0.0579,0.0773 -0.1507,0.32973 -0.20613,0.56083 -0.22621,0.94314 -2.09645,4.41561 -2.81627,5.22894 -0.08,0.0904 -0.491907,0.56502 -0.915407,1.05478 -0.42351,0.48975 -1.23364,1.30182 -1.80031,1.8046 -0.56667,0.50277 -1.11748,0.99324 -1.22403,1.08993 -0.10654,0.0967 -0.23244,0.1758 -0.27977,0.1758 -0.0799,0 -0.90074,0.54492 -1.05923,0.70318 -0.23535,0.23499 -2.908567,1.547 -3.152017,1.547 -0.1136,0 -0.24567,0.0633 -0.29347,0.14064 -0.0478,0.0774 -0.19394,0.14102 -0.32474,0.1415 -0.13079,4.2e-4 -0.40254,0.0868 -0.60388,0.19189 -0.20134,0.10506 -0.67599,0.23716 -1.05477,0.29356 -0.378787,0.0564 -0.751987,0.15311 -0.829337,0.2149 -0.16177,0.12922 -3.58864,0.43345 -4.55567,0.40444 -0.356337,-0.0107 -1.280747,-0.0742 -2.054247,-0.14104 z m 4.219097,-3.98215 c 6.073237,-0.72822 10.862184,-4.56255 13.005774,-10.41326 0.578827,-1.57985 0.773477,-2.83651 0.773287,-4.99259 -4.2e-4,-4.19751 -0.475167,-5.54346 -4.059047,-11.50616 -1.13044,-1.88075 -2.055327,-3.45151 -2.055327,-3.49057 0,-0.0391 -0.18986,-0.34697 -0.42191,-0.68425 -0.23205,-0.33727 -0.42191,-0.65056 -0.42191,-0.6962 0,-0.0456 -1.17686,-2.05243 -2.61523,-4.45955 -1.438377,-2.407117 -2.740407,-4.605043 -2.893397,-4.884282 -0.66831,-1.219826 -3.00205,-5.078396 -3.07152,-5.078396 -0.0421,0 -1.018847,1.597982 -2.170617,3.551072 -2.48606,4.215679 -6.693267,11.334856 -9.246195,15.645816 -1.955902,3.30281 -2.90822,5.04252 -3.194856,5.83642 -1.539165,4.26303 -1.185246,9.41036 0.905874,13.17487 1.837563,3.30805 5.16907,6.12788 8.527187,7.21751 0.48978,0.15892 1.11074,0.35985 1.3799,0.4465 0.45412,0.14619 2.71464,0.47917 3.518747,0.51831 0.19338,0.009 1.11103,-0.0739 2.03924,-0.18524 z"
         id="path852" /></g><g
       id="g862"
       transform="matrix(0.25001659,0,0,0.25001659,160.61299,111.24165)"
       style="stroke-width:3.99973"><path
         style="fill:#2aa4f5;stroke-width:3.99973"
         d="m 61.787494,141.72398 c -7.096887,-0.86051 -12.743928,-4.73692 -15.822983,-10.8617 -1.478956,-2.9419 -2.080872,-5.51202 -2.080476,-8.88344 2.81e-4,-2.38755 0.280154,-4.19406 0.972262,-6.27567 0.641144,-1.92833 1.062546,-2.70374 6.066757,-11.16326 1.121028,-1.89508 3.460983,-5.850484 5.199903,-8.789787 1.738917,-2.939304 3.736487,-6.316117 4.439057,-7.504029 0.70256,-1.187912 1.45803,-2.340484 1.67882,-2.561271 0.71135,-0.711353 2.000117,-0.721153 2.746907,-0.02089 0.22422,0.210247 0.77442,1.015132 1.22268,1.788633 0.81444,1.405382 3.605467,6.134338 9.171884,15.540344 6.119427,10.34044 6.062087,10.23724 6.798007,12.23538 0.91988,2.4976 1.04253,3.27894 1.04867,6.68023 0.006,3.30111 -0.0704,3.86754 -0.84983,6.30628 -1.56798,4.90586 -5.421087,9.30653 -10.114244,11.55157 -1.75956,0.84171 -3.39864,1.38168 -5.133227,1.69107 -1.208,0.21546 -4.437187,0.37652 -5.344187,0.26654 z m 10.480794,-10.4734 c 0.2339,-0.14006 0.74438,-0.65387 1.13439,-1.1418 1.021507,-1.278 1.605807,-2.32589 2.330397,-4.17938 0.17476,-0.44703 0.49607,-2.24239 0.60634,-3.38801 0.16018,-1.66417 -0.4199,-4.33301 -1.36027,-6.25833 -0.55289,-1.132 -3.543617,-6.20105 -3.885927,-6.58637 -0.299,-0.33656 -1.07613,-0.65641 -1.59488,-0.65641 -0.8651,0 -1.855517,0.85802 -2.023397,1.75293 -0.13406,0.71456 0.11724,1.29705 1.665197,3.85986 1.87277,3.10056 2.57797,4.60081 2.78392,5.92247 0.41061,2.635 -0.23736,4.86284 -2.0743,7.13193 -0.82464,1.01864 -1.00386,1.66714 -0.68877,2.4922 0.49496,1.29603 1.90276,1.77216 3.1073,1.05091 z m -4.691517,-23.44087 c 0.945317,-0.55638 1.289997,-1.89767 0.736237,-2.86508 -0.366947,-0.64107 -1.401157,-1.15856 -2.066107,-1.03381 -1.49424,0.28032 -2.23505,1.7024 -1.58877,3.04983 0.13774,0.28718 0.45003,0.65001 0.69397,0.80629 0.56413,0.3614 1.64789,0.38224 2.22467,0.0428 z"
         id="path856" /><path
         style="fill:#2095d6;stroke-width:3.99973"
         d="m 61.787494,141.72398 c -7.096887,-0.86051 -12.743928,-4.73692 -15.822983,-10.8617 -1.478956,-2.9419 -2.080872,-5.51202 -2.080476,-8.88344 2.81e-4,-2.38755 0.280154,-4.19406 0.972262,-6.27567 0.641144,-1.92833 1.062546,-2.70374 6.066757,-11.16326 1.121028,-1.89508 3.460983,-5.850484 5.199903,-8.789787 1.738917,-2.939304 3.736487,-6.316117 4.439057,-7.504029 0.70256,-1.187912 1.45803,-2.340484 1.67882,-2.561271 0.71135,-0.711353 2.000117,-0.721153 2.746907,-0.02089 0.22422,0.210247 0.77442,1.015132 1.22268,1.788633 0.81444,1.405382 3.605467,6.134338 9.171884,15.540344 6.119427,10.34044 6.062087,10.23724 6.798007,12.23538 0.91988,2.4976 1.04253,3.27894 1.04867,6.68023 0.006,3.30111 -0.0704,3.86754 -0.84983,6.30628 -1.56798,4.90586 -5.421087,9.30653 -10.114244,11.55157 -1.75956,0.84171 -3.39864,1.38168 -5.133227,1.69107 -1.208,0.21546 -4.437187,0.37652 -5.344187,0.26654 z m 3.791547,-4.48693 c 0.73173,-0.0462 1.39624,-0.13605 1.47669,-0.19964 0.0804,-0.0636 0.44541,-0.1589 0.81102,-0.2118 0.36561,-0.0529 0.697257,-0.1488 0.737007,-0.21312 0.0397,-0.0643 0.2469,-0.15949 0.46035,-0.21151 0.50539,-0.12318 2.16308,-0.92325 2.40219,-1.1594 0.10221,-0.10095 0.27098,-0.18354 0.37503,-0.18354 0.10406,0 0.21029,-0.0475 0.23607,-0.10548 0.0258,-0.058 0.3077,-0.28247 0.62647,-0.4988 0.83487,-0.56656 2.431907,-2.14192 3.165577,-3.12259 0.6623,-0.88528 1.52533,-2.2518 1.53347,-2.42809 0.003,-0.0568 0.12705,-0.35651 0.2765,-0.66591 0.14945,-0.3094 0.27388,-0.63442 0.2765,-0.72227 0.003,-0.0878 0.0993,-0.34099 0.21486,-0.56254 0.11555,-0.22156 0.21048,-0.53257 0.21096,-0.69114 4.2e-4,-0.15856 0.0549,-0.34842 0.12094,-0.42191 0.20314,-0.22602 0.615267,-3.50022 0.541327,-4.30062 -0.20605,-2.23047 -0.521327,-3.83846 -0.947737,-4.83372 -0.0663,-0.1547 -0.26338,-0.62935 -0.43801,-1.05477 -0.17463,-0.42543 -0.58938,-1.22452 -0.92167,-1.77577 -0.3323,-0.55125 -0.60417,-1.06809 -0.60417,-1.14853 0,-0.0804 -0.0508,-0.16736 -0.11289,-0.19315 -0.15504,-0.0644 -1.15284,-1.7337 -1.15284,-1.92871 0,-0.0866 -0.0494,-0.1574 -0.1098,-0.1574 -0.0604,0 -0.18582,-0.17403 -0.27873,-0.38675 -0.0929,-0.21271 -0.2931,-0.57661 -0.44486,-0.80866 -0.15176,-0.23205 -0.36346,-0.58372 -0.47044,-0.7815 -0.106977,-0.19777 -1.091467,-1.85303 -2.187747,-3.67836 -1.09629,-1.82532 -1.99324,-3.38806 -1.99324,-3.47275 0,-0.0847 -0.0571,-0.15399 -0.12688,-0.15399 -0.0698,0 -0.19655,-0.17404 -0.28169,-0.38675 -0.0851,-0.21271 -0.27765,-0.57661 -0.42778,-0.808661 -0.15014,-0.23205 -0.360507,-0.583725 -0.467487,-0.7815 -0.10698,-0.197775 -1.09147,-1.853038 -2.18775,-3.678362 -1.09628,-1.825325 -1.99324,-3.388065 -1.99324,-3.472756 0,-0.08469 -0.11335,-0.153983 -0.25189,-0.153983 -0.16068,0 -0.39285,0.267357 -0.64117,0.738342 -0.214097,0.406088 -0.577187,1.054774 -0.806857,1.441524 -0.68413,1.152011 -0.43767,0.293992 -3.15088,10.969656 -0.57009,2.24315 -1.25927,4.93282 -1.531497,5.97705 -1.12336,4.30898 -1.51454,7.18692 -1.5006,11.03997 0.0162,4.48154 0.55788,7.95236 1.776997,11.38642 0.55882,1.57411 1.52171,3.37341 1.83172,3.42282 0.14632,0.0233 0.39261,0.104 0.54731,0.17927 0.29551,0.14379 3.123117,0.38802 3.726867,0.3219 0.19338,-0.0212 0.95028,-0.0763 1.682,-0.12252 z"
         id="path858" /><path
         style="fill:#323232;stroke-width:3.99973"
         d="m 61.154634,141.50748 c -0.7735,-0.0669 -1.50782,-0.17943 -1.63181,-0.25012 -0.12399,-0.0707 -0.52884,-0.17401 -0.89966,-0.22962 -0.37082,-0.0556 -0.83895,-0.18706 -1.040277,-0.29212 -0.20134,-0.10506 -0.47309,-0.19141 -0.60389,-0.19189 -0.1308,-4.2e-4 -0.27693,-0.0641 -0.32473,-0.1415 -0.0478,-0.0773 -0.18816,-0.14064 -0.31189,-0.14064 -0.26194,0 -2.27239,-0.9717 -2.54605,-1.23057 -0.10221,-0.0967 -0.24727,-0.17579 -0.32236,-0.17579 -0.0751,0 -0.21297,-0.0641 -0.30639,-0.14235 -0.0934,-0.0783 -0.61287,-0.46133 -1.154317,-0.8512 -1.793316,-1.29126 -3.811368,-3.43945 -5.049786,-5.37541 -3.541426,-5.53614 -3.978326,-12.83189 -1.130744,-18.88222 0.481457,-1.02296 2.035658,-3.7732 2.73801,-4.84504 0.07603,-0.11603 0.202308,-0.33753 0.280622,-0.49223 0.07831,-0.1547 0.267325,-0.47113 0.420025,-0.70318 0.1527,-0.23206 0.321621,-0.51684 0.375381,-0.63287 0.05376,-0.11602 0.964816,-1.66701 2.024571,-3.44663 2.552428,-4.286223 2.450698,-4.112077 2.895108,-4.956406 0.21374,-0.406088 0.43869,-0.738341 0.49988,-0.738341 0.0612,0 0.11126,-0.06287 0.11126,-0.139722 0,-0.07685 1.04422,-1.887577 2.3205,-4.023844 1.276277,-2.136268 2.320497,-3.913119 2.320497,-3.948558 0,-0.03544 0.18986,-0.340387 0.42191,-0.67766 0.23205,-0.337274 0.42191,-0.643338 0.42191,-0.680143 0,-0.235128 1.48636,-2.53011 1.75091,-2.703447 0.935237,-0.612797 1.958437,-0.487433 2.708917,0.331901 0.25435,0.277683 0.46245,0.557055 0.46245,0.620827 0,0.06377 0.17275,0.383658 0.38388,0.710859 0.56415,0.874288 0.71466,1.126232 0.85951,1.43873 0.0717,0.1547 1.05536,1.820072 2.185907,3.700827 1.13054,1.880754 2.05553,3.448351 2.05553,3.483549 0,0.0352 0.17274,0.331705 0.38387,0.658906 0.56415,0.874288 0.71467,1.126232 0.85952,1.438729 0.0717,0.154701 1.05536,1.820072 2.185897,3.700833 1.13054,1.88075 2.05553,3.45374 2.05553,3.49552 0,0.0418 0.18371,0.34817 0.40824,0.68086 0.22454,0.3327 0.4503,0.73741 0.50171,0.89937 0.0514,0.16196 0.15248,0.29448 0.22462,0.29448 0.0721,0 0.13116,0.0697 0.13116,0.15497 0,0.0852 0.64994,1.24021 1.444307,2.56661 0.79437,1.32641 1.68574,2.91794 1.98082,3.53674 0.29509,0.6188 0.59444,1.23499 0.66524,1.3693 0.0708,0.13431 0.12911,0.32417 0.12959,0.42191 4.2e-4,0.0977 0.089,0.34657 0.19665,0.55296 0.10768,0.20639 0.24169,0.64696 0.2978,0.97905 0.0561,0.33208 0.15397,0.70115 0.21749,0.82015 0.20001,0.37474 0.44748,2.26374 0.51659,3.94323 0.0645,1.56881 -0.239,4.53684 -0.51835,5.06833 -0.0626,0.119 -0.16035,0.49872 -0.21733,0.84382 -0.057,0.3451 -0.15101,0.69074 -0.20895,0.76809 -0.0579,0.0773 -0.1507,0.32973 -0.20613,0.56083 -0.22621,0.94314 -2.09645,4.41561 -2.81627,5.22894 -0.08,0.0904 -0.491907,0.56502 -0.915407,1.05478 -0.42351,0.48975 -1.23364,1.30182 -1.80031,1.8046 -0.56667,0.50277 -1.11748,0.99324 -1.22403,1.08993 -0.10654,0.0967 -0.23244,0.1758 -0.27977,0.1758 -0.0799,0 -0.90074,0.54492 -1.05923,0.70318 -0.23535,0.23499 -2.908567,1.547 -3.152017,1.547 -0.1136,0 -0.24567,0.0633 -0.29347,0.14064 -0.0478,0.0774 -0.19394,0.14102 -0.32474,0.1415 -0.13079,4.2e-4 -0.40254,0.0868 -0.60388,0.19189 -0.20134,0.10506 -0.67599,0.23716 -1.05477,0.29356 -0.378787,0.0564 -0.751987,0.15311 -0.829337,0.2149 -0.16177,0.12922 -3.58864,0.43345 -4.55567,0.40444 -0.356337,-0.0107 -1.280747,-0.0742 -2.054247,-0.14104 z m 4.219097,-3.98215 c 6.073237,-0.72822 10.862184,-4.56255 13.005774,-10.41326 0.578827,-1.57985 0.773477,-2.83651 0.773287,-4.99259 -4.2e-4,-4.19751 -0.475167,-5.54346 -4.059047,-11.50616 -1.13044,-1.88075 -2.055327,-3.45151 -2.055327,-3.49057 0,-0.0391 -0.18986,-0.34697 -0.42191,-0.68425 -0.23205,-0.33727 -0.42191,-0.65056 -0.42191,-0.6962 0,-0.0456 -1.17686,-2.05243 -2.61523,-4.45955 -1.438377,-2.407117 -2.740407,-4.605043 -2.893397,-4.884282 -0.66831,-1.219826 -3.00205,-5.078396 -3.07152,-5.078396 -0.0421,0 -1.018847,1.597982 -2.170617,3.551072 -2.48606,4.215679 -6.693267,11.334856 -9.246195,15.645816 -1.955902,3.30281 -2.90822,5.04252 -3.194856,5.83642 -1.539165,4.26303 -1.185246,9.41036 0.905874,13.17487 1.837563,3.30805 5.16907,6.12788 8.527187,7.21751 0.48978,0.15892 1.11074,0.35985 1.3799,0.4465 0.45412,0.14619 2.71464,0.47917 3.518747,0.51831 0.19338,0.009 1.11103,-0.0739 2.03924,-0.18524 z"
         id="path860" /></g></g></svg>
